<mxfile host="65bd71144e">
    <diagram id="45ct2a3uuLNAdjrdSQN5" name="Page-1">
        <mxGraphModel dx="2437" dy="1222" grid="1" gridSize="10" guides="1" tooltips="1" connect="1" arrows="1" fold="1" page="1" pageScale="1" pageWidth="850" pageHeight="1100" background="#ffffff" math="0" shadow="0">
            <root>
                <mxCell id="0"/>
                <mxCell id="1" parent="0"/>
                <mxCell id="5" value="" style="edgeStyle=none;html=1;fontColor=#000000;strokeColor=#000000;entryX=0.457;entryY=1.007;entryDx=0;entryDy=0;entryPerimeter=0;" edge="1" parent="1">
                    <mxGeometry relative="1" as="geometry">
                        <mxPoint x="145" y="30" as="sourcePoint"/>
                        <mxPoint x="145" y="30" as="targetPoint"/>
                    </mxGeometry>
                </mxCell>
                <mxCell id="9" value="" style="edgeStyle=none;html=1;fontColor=#000000;strokeColor=#000000;startArrow=none;" edge="1" parent="1" source="2" target="8">
                    <mxGeometry relative="1" as="geometry">
                        <mxPoint x="145" y="30" as="sourcePoint"/>
                    </mxGeometry>
                </mxCell>
                <mxCell id="12" value="Register" style="edgeStyle=orthogonalEdgeStyle;html=1;fontColor=#000000;strokeColor=#000000;exitX=0;exitY=0.5;exitDx=0;exitDy=0;entryX=0.5;entryY=0;entryDx=0;entryDy=0;labelBackgroundColor=#FFFFFF;" edge="1" parent="1" source="8" target="11">
                    <mxGeometry x="-0.3332" y="-10" relative="1" as="geometry">
                        <mxPoint as="offset"/>
                    </mxGeometry>
                </mxCell>
                <mxCell id="17" value="Login" style="edgeStyle=orthogonalEdgeStyle;html=1;labelBackgroundColor=#FFFFFF;fontColor=#000000;strokeColor=#000000;" edge="1" parent="1" source="8" target="16">
                    <mxGeometry x="-0.1667" y="10" relative="1" as="geometry">
                        <Array as="points">
                            <mxPoint x="300" y="110"/>
                        </Array>
                        <mxPoint as="offset"/>
                    </mxGeometry>
                </mxCell>
                <mxCell id="8" value="Login or Register" style="rhombus;whiteSpace=wrap;html=1;fillColor=none;strokeColor=#000000;fontColor=#000000;sketch=0;fillStyle=solid;" vertex="1" parent="1">
                    <mxGeometry x="105" y="70" width="80" height="80" as="geometry"/>
                </mxCell>
                <mxCell id="2" value="" style="shape=waypoint;sketch=0;fillStyle=solid;size=6;pointerEvents=1;points=[];fillColor=none;resizable=0;rotatable=0;perimeter=centerPerimeter;snapToPoint=1;strokeColor=#000000;fontColor=#000000;" vertex="1" parent="1">
                    <mxGeometry x="125" y="10" width="40" height="40" as="geometry"/>
                </mxCell>
                <mxCell id="10" value="" style="edgeStyle=none;html=1;fontColor=#000000;strokeColor=#000000;endArrow=none;" edge="1" parent="1" target="2">
                    <mxGeometry relative="1" as="geometry">
                        <mxPoint x="145" y="30" as="sourcePoint"/>
                        <mxPoint x="145" y="70" as="targetPoint"/>
                    </mxGeometry>
                </mxCell>
                <mxCell id="14" value="" style="edgeStyle=orthogonalEdgeStyle;html=1;labelBackgroundColor=#FFFFFF;fontColor=#000000;strokeColor=#000000;entryX=0.5;entryY=0;entryDx=0;entryDy=0;exitX=0.5;exitY=1;exitDx=0;exitDy=0;" edge="1" parent="1" source="11" target="46">
                    <mxGeometry relative="1" as="geometry"/>
                </mxCell>
                <mxCell id="11" value="User Enters Personal and Financial Information" style="rounded=1;whiteSpace=wrap;html=1;fillColor=none;strokeColor=#000000;fontColor=#000000;sketch=0;fillStyle=solid;" vertex="1" parent="1">
                    <mxGeometry x="-40" y="160" width="120" height="60" as="geometry"/>
                </mxCell>
                <mxCell id="71" value="" style="edgeStyle=orthogonalEdgeStyle;html=1;labelBackgroundColor=#FFFFFF;fontColor=#000000;strokeColor=#000000;" edge="1" parent="1" source="13" target="69">
                    <mxGeometry relative="1" as="geometry"/>
                </mxCell>
                <mxCell id="13" value="Pay Annual Membership Fee" style="whiteSpace=wrap;html=1;fillColor=none;strokeColor=#000000;fontColor=#000000;rounded=1;sketch=0;fillStyle=solid;" vertex="1" parent="1">
                    <mxGeometry x="214" y="584" width="120" height="60" as="geometry"/>
                </mxCell>
                <mxCell id="45" value="" style="edgeStyle=orthogonalEdgeStyle;html=1;labelBackgroundColor=#FFFFFF;fontColor=#000000;strokeColor=#000000;" edge="1" parent="1" source="16" target="44">
                    <mxGeometry relative="1" as="geometry"/>
                </mxCell>
                <mxCell id="16" value="Enter Login Credentials" style="rounded=1;whiteSpace=wrap;html=1;fillColor=none;strokeColor=#000000;fontColor=#000000;sketch=0;fillStyle=solid;" vertex="1" parent="1">
                    <mxGeometry x="354" y="160" width="120" height="60" as="geometry"/>
                </mxCell>
                <mxCell id="27" value="Registered" style="edgeStyle=orthogonalEdgeStyle;html=1;labelBackgroundColor=#FFFFFF;fontColor=#000000;strokeColor=#000000;" edge="1" parent="1" source="20" target="24">
                    <mxGeometry relative="1" as="geometry"/>
                </mxCell>
                <mxCell id="41" value="Ordinary" style="edgeStyle=orthogonalEdgeStyle;html=1;labelBackgroundColor=#FFFFFF;fontColor=#000000;strokeColor=#000000;entryX=0.5;entryY=0;entryDx=0;entryDy=0;" edge="1" parent="1" source="20" target="42">
                    <mxGeometry relative="1" as="geometry">
                        <mxPoint x="564" y="323" as="targetPoint"/>
                    </mxGeometry>
                </mxCell>
                <mxCell id="20" value="Registered or Ordinary User" style="rhombus;whiteSpace=wrap;html=1;fillColor=none;strokeColor=#000000;fontColor=#000000;sketch=0;fillStyle=solid;" vertex="1" parent="1">
                    <mxGeometry x="359" y="283" width="110" height="80" as="geometry"/>
                </mxCell>
                <mxCell id="32" value="Yes" style="edgeStyle=orthogonalEdgeStyle;html=1;labelBackgroundColor=#FFFFFF;fontColor=#000000;strokeColor=#000000;" edge="1" parent="1" source="24" target="31">
                    <mxGeometry relative="1" as="geometry"/>
                </mxCell>
                <mxCell id="39" value="No" style="edgeStyle=orthogonalEdgeStyle;html=1;labelBackgroundColor=#FFFFFF;fontColor=#000000;strokeColor=#000000;entryX=0;entryY=0.5;entryDx=0;entryDy=0;" edge="1" parent="1" source="24" target="42">
                    <mxGeometry relative="1" as="geometry">
                        <mxPoint x="564" y="482" as="targetPoint"/>
                    </mxGeometry>
                </mxCell>
                <mxCell id="24" value="Fees &lt;br&gt;Outstanding?" style="rhombus;whiteSpace=wrap;html=1;fillColor=none;strokeColor=#000000;fontColor=#000000;sketch=0;fillStyle=solid;" vertex="1" parent="1">
                    <mxGeometry x="359" y="443" width="110" height="80" as="geometry"/>
                </mxCell>
                <mxCell id="30" value="" style="edgeStyle=orthogonalEdgeStyle;html=1;labelBackgroundColor=#FFFFFF;fontColor=#000000;strokeColor=#000000;entryX=0.5;entryY=0;entryDx=0;entryDy=0;exitX=0.5;exitY=1;exitDx=0;exitDy=0;" edge="1" parent="1" source="44" target="20">
                    <mxGeometry relative="1" as="geometry">
                        <mxPoint x="684" y="250" as="sourcePoint"/>
                        <mxPoint x="584.0000000000002" y="250" as="targetPoint"/>
                    </mxGeometry>
                </mxCell>
                <mxCell id="33" value="" style="edgeStyle=orthogonalEdgeStyle;html=1;labelBackgroundColor=#FFFFFF;fontColor=#000000;strokeColor=#000000;" edge="1" parent="1" source="31" target="13">
                    <mxGeometry relative="1" as="geometry"/>
                </mxCell>
                <mxCell id="31" value="" style="rhombus;whiteSpace=wrap;html=1;fillColor=none;strokeColor=#000000;fontColor=#000000;sketch=0;fillStyle=solid;" vertex="1" parent="1">
                    <mxGeometry x="234" y="443" width="80" height="80" as="geometry"/>
                </mxCell>
                <mxCell id="37" value="" style="edgeStyle=orthogonalEdgeStyle;html=1;labelBackgroundColor=#FFFFFF;fontColor=#000000;strokeColor=#000000;entryX=0.5;entryY=1;entryDx=0;entryDy=0;" edge="1" parent="1" source="34" target="42">
                    <mxGeometry relative="1" as="geometry">
                        <mxPoint x="414.0000000000002" y="820" as="targetPoint"/>
                    </mxGeometry>
                </mxCell>
                <mxCell id="34" value="Receive New and Discounts" style="whiteSpace=wrap;html=1;fillColor=none;strokeColor=#000000;fontColor=#000000;rounded=1;sketch=0;fillStyle=solid;" vertex="1" parent="1">
                    <mxGeometry x="214" y="790" width="120" height="60" as="geometry"/>
                </mxCell>
                <mxCell id="74" value="Buy" style="edgeStyle=orthogonalEdgeStyle;html=1;labelBackgroundColor=#FFFFFF;fontColor=#000000;strokeColor=#000000;exitX=1;exitY=0.5;exitDx=0;exitDy=0;" edge="1" parent="1" source="101" target="73">
                    <mxGeometry relative="1" as="geometry">
                        <mxPoint x="920" y="483" as="sourcePoint"/>
                    </mxGeometry>
                </mxCell>
                <mxCell id="102" value="" style="edgeStyle=orthogonalEdgeStyle;html=1;labelBackgroundColor=#FFFFFF;fontColor=#000000;strokeColor=#000000;" edge="1" parent="1" source="38" target="101">
                    <mxGeometry relative="1" as="geometry"/>
                </mxCell>
                <mxCell id="38" value="User Shown Main Page" style="rounded=1;whiteSpace=wrap;html=1;fillColor=none;strokeColor=#000000;fontColor=#000000;sketch=0;fillStyle=solid;" vertex="1" parent="1">
                    <mxGeometry x="680" y="453.75" width="84" height="57" as="geometry"/>
                </mxCell>
                <mxCell id="43" value="" style="edgeStyle=orthogonalEdgeStyle;html=1;labelBackgroundColor=#FFFFFF;fontColor=#000000;strokeColor=#000000;" edge="1" parent="1" source="42" target="38">
                    <mxGeometry relative="1" as="geometry"/>
                </mxCell>
                <mxCell id="42" value="" style="rhombus;whiteSpace=wrap;html=1;fontColor=#000000;strokeColor=#000000;fillColor=#FFFFFF;" vertex="1" parent="1">
                    <mxGeometry x="564" y="462.5" width="40" height="40" as="geometry"/>
                </mxCell>
                <mxCell id="44" value="Check Credentials" style="whiteSpace=wrap;html=1;fillColor=none;strokeColor=#000000;fontColor=#000000;rounded=1;sketch=0;fillStyle=solid;" vertex="1" parent="1">
                    <mxGeometry x="554" y="160" width="120" height="60" as="geometry"/>
                </mxCell>
                <mxCell id="56" value="" style="edgeStyle=orthogonalEdgeStyle;html=1;labelBackgroundColor=#FFFFFF;fontColor=#000000;strokeColor=#000000;" edge="1" parent="1" source="46" target="55">
                    <mxGeometry relative="1" as="geometry"/>
                </mxCell>
                <mxCell id="46" value="Check Details Personal Info against&amp;nbsp;&lt;br&gt;database" style="whiteSpace=wrap;html=1;fillColor=none;strokeColor=#000000;fontColor=#000000;rounded=1;sketch=0;fillStyle=solid;" vertex="1" parent="1">
                    <mxGeometry x="-40" y="293" width="120" height="60" as="geometry"/>
                </mxCell>
                <mxCell id="58" value="Yes" style="edgeStyle=orthogonalEdgeStyle;html=1;labelBackgroundColor=#FFFFFF;fontColor=#000000;strokeColor=#000000;" edge="1" parent="1" source="55">
                    <mxGeometry relative="1" as="geometry">
                        <mxPoint x="-100" y="440" as="targetPoint"/>
                    </mxGeometry>
                </mxCell>
                <mxCell id="60" value="No" style="edgeStyle=orthogonalEdgeStyle;html=1;labelBackgroundColor=#FFFFFF;fontColor=#000000;strokeColor=#000000;" edge="1" parent="1" source="55" target="59">
                    <mxGeometry relative="1" as="geometry"/>
                </mxCell>
                <mxCell id="55" value="User Already Exists?" style="rhombus;whiteSpace=wrap;html=1;fillColor=none;strokeColor=#000000;fontColor=#000000;sketch=0;fillStyle=solid;" vertex="1" parent="1">
                    <mxGeometry x="-20" y="400" width="80" height="80" as="geometry"/>
                </mxCell>
                <mxCell id="62" value="" style="edgeStyle=orthogonalEdgeStyle;html=1;labelBackgroundColor=#FFFFFF;fontColor=#000000;strokeColor=#000000;" edge="1" parent="1" source="59" target="61">
                    <mxGeometry relative="1" as="geometry"/>
                </mxCell>
                <mxCell id="59" value="Verify Financial Info" style="rounded=1;whiteSpace=wrap;html=1;fillColor=none;strokeColor=#000000;fontColor=#000000;sketch=0;fillStyle=solid;" vertex="1" parent="1">
                    <mxGeometry x="-40" y="525" width="120" height="60" as="geometry"/>
                </mxCell>
                <mxCell id="64" value="Fails" style="edgeStyle=orthogonalEdgeStyle;html=1;labelBackgroundColor=#FFFFFF;fontColor=#000000;strokeColor=#000000;entryX=0;entryY=0.5;entryDx=0;entryDy=0;" edge="1" parent="1" source="61" target="11">
                    <mxGeometry x="-0.8732" y="-12" relative="1" as="geometry">
                        <mxPoint x="-100" y="682" as="targetPoint"/>
                        <Array as="points">
                            <mxPoint x="-100" y="682"/>
                            <mxPoint x="-100" y="190"/>
                        </Array>
                        <mxPoint as="offset"/>
                    </mxGeometry>
                </mxCell>
                <mxCell id="66" value="Succeeds" style="edgeStyle=orthogonalEdgeStyle;html=1;labelBackgroundColor=#FFFFFF;fontColor=#000000;strokeColor=#000000;entryX=0;entryY=0.5;entryDx=0;entryDy=0;" edge="1" parent="1" source="61" target="31">
                    <mxGeometry relative="1" as="geometry">
                        <mxPoint x="140" y="682" as="targetPoint"/>
                    </mxGeometry>
                </mxCell>
                <mxCell id="61" value="Verified?" style="rhombus;whiteSpace=wrap;html=1;fillColor=none;strokeColor=#000000;fontColor=#000000;sketch=0;fillStyle=solid;" vertex="1" parent="1">
                    <mxGeometry x="-20" y="642" width="80" height="80" as="geometry"/>
                </mxCell>
                <mxCell id="72" value="" style="edgeStyle=orthogonalEdgeStyle;html=1;labelBackgroundColor=#FFFFFF;fontColor=#000000;strokeColor=#000000;" edge="1" parent="1" source="69" target="34">
                    <mxGeometry relative="1" as="geometry"/>
                </mxCell>
                <mxCell id="69" value="Confirm payment with Financial Institution" style="whiteSpace=wrap;html=1;fillColor=none;strokeColor=#000000;fontColor=#000000;rounded=1;sketch=0;fillStyle=solid;" vertex="1" parent="1">
                    <mxGeometry x="214" y="690" width="120" height="60" as="geometry"/>
                </mxCell>
                <mxCell id="82" value="Yes" style="edgeStyle=orthogonalEdgeStyle;html=1;labelBackgroundColor=#FFFFFF;fontColor=#000000;strokeColor=#000000;" edge="1" parent="1" source="73" target="81">
                    <mxGeometry relative="1" as="geometry"/>
                </mxCell>
                <mxCell id="73" value="Select Movie" style="rhombus;whiteSpace=wrap;html=1;fontColor=#000000;strokeColor=#000000;fillColor=#FFFFFF;" vertex="1" parent="1">
                    <mxGeometry x="1030" y="452" width="60" height="62.5" as="geometry"/>
                </mxCell>
                <mxCell id="84" value="" style="edgeStyle=orthogonalEdgeStyle;html=1;labelBackgroundColor=#FFFFFF;fontColor=#000000;strokeColor=#000000;" edge="1" parent="1" source="81" target="83">
                    <mxGeometry relative="1" as="geometry"/>
                </mxCell>
                <mxCell id="81" value="Display the Theatres" style="rounded=1;whiteSpace=wrap;html=1;fillColor=#FFFFFF;strokeColor=#000000;fontColor=#000000;" vertex="1" parent="1">
                    <mxGeometry x="1000" y="595.75" width="120" height="60" as="geometry"/>
                </mxCell>
                <mxCell id="86" value="Yes" style="edgeStyle=orthogonalEdgeStyle;html=1;labelBackgroundColor=#FFFFFF;fontColor=#000000;strokeColor=#000000;" edge="1" parent="1" source="83" target="87">
                    <mxGeometry relative="1" as="geometry"/>
                </mxCell>
                <mxCell id="83" value="Select Theatre" style="rhombus;whiteSpace=wrap;html=1;fontColor=#000000;strokeColor=#000000;fillColor=#FFFFFF;" vertex="1" parent="1">
                    <mxGeometry x="1030" y="721" width="60" height="62.5" as="geometry"/>
                </mxCell>
                <mxCell id="90" value="Yes" style="edgeStyle=orthogonalEdgeStyle;html=1;labelBackgroundColor=#FFFFFF;fontColor=#000000;strokeColor=#000000;" edge="1" parent="1" source="85" target="89">
                    <mxGeometry relative="1" as="geometry"/>
                </mxCell>
                <mxCell id="85" value="Select Showtime" style="rhombus;whiteSpace=wrap;html=1;fontColor=#000000;strokeColor=#000000;fillColor=#FFFFFF;" vertex="1" parent="1">
                    <mxGeometry x="1030" y="951" width="60" height="62.5" as="geometry"/>
                </mxCell>
                <mxCell id="88" value="" style="edgeStyle=orthogonalEdgeStyle;html=1;labelBackgroundColor=#FFFFFF;fontColor=#000000;strokeColor=#000000;" edge="1" parent="1" source="87" target="85">
                    <mxGeometry relative="1" as="geometry"/>
                </mxCell>
                <mxCell id="87" value="Display the Showtimes" style="rounded=1;whiteSpace=wrap;html=1;fillColor=#FFFFFF;strokeColor=#000000;fontColor=#000000;" vertex="1" parent="1">
                    <mxGeometry x="1000" y="831" width="120" height="60" as="geometry"/>
                </mxCell>
                <mxCell id="93" value="" style="edgeStyle=orthogonalEdgeStyle;html=1;labelBackgroundColor=#FFFFFF;fontColor=#000000;strokeColor=#000000;" edge="1" parent="1" source="89" target="91">
                    <mxGeometry relative="1" as="geometry"/>
                </mxCell>
                <mxCell id="89" value="Display the Seats" style="rounded=1;whiteSpace=wrap;html=1;fillColor=#FFFFFF;strokeColor=#000000;fontColor=#000000;" vertex="1" parent="1">
                    <mxGeometry x="1000" y="1071" width="120" height="60" as="geometry"/>
                </mxCell>
                <mxCell id="98" value="" style="edgeStyle=orthogonalEdgeStyle;html=1;labelBackgroundColor=#FFFFFF;fontColor=#000000;strokeColor=#000000;" edge="1" parent="1" source="91" target="97">
                    <mxGeometry relative="1" as="geometry"/>
                </mxCell>
                <mxCell id="91" value="Select Seats" style="rhombus;whiteSpace=wrap;html=1;fontColor=#000000;strokeColor=#000000;fillColor=#FFFFFF;" vertex="1" parent="1">
                    <mxGeometry x="1030" y="1191" width="60" height="62.5" as="geometry"/>
                </mxCell>
                <mxCell id="100" value="Yes" style="edgeStyle=orthogonalEdgeStyle;html=1;labelBackgroundColor=#FFFFFF;fontColor=#000000;strokeColor=#000000;" edge="1" parent="1" source="97" target="99">
                    <mxGeometry relative="1" as="geometry"/>
                </mxCell>
                <mxCell id="105" value="No" style="edgeStyle=orthogonalEdgeStyle;html=1;labelBackgroundColor=#FFFFFF;fontColor=#000000;strokeColor=#000000;" edge="1" parent="1" source="97" target="104">
                    <mxGeometry relative="1" as="geometry"/>
                </mxCell>
                <mxCell id="97" value="Registered User" style="rhombus;whiteSpace=wrap;html=1;fontColor=#000000;strokeColor=#000000;fillColor=#FFFFFF;" vertex="1" parent="1">
                    <mxGeometry x="1030" y="1333.5" width="60" height="62.5" as="geometry"/>
                </mxCell>
                <mxCell id="108" value="" style="edgeStyle=orthogonalEdgeStyle;html=1;labelBackgroundColor=#FFFFFF;fontColor=#000000;strokeColor=#000000;" edge="1" parent="1" source="99" target="106">
                    <mxGeometry relative="1" as="geometry"/>
                </mxCell>
                <mxCell id="99" value="Credit Card Details pull from database" style="rounded=1;whiteSpace=wrap;html=1;fillColor=#FFFFFF;strokeColor=#000000;fontColor=#000000;" vertex="1" parent="1">
                    <mxGeometry x="1000" y="1477.25" width="120" height="60" as="geometry"/>
                </mxCell>
                <mxCell id="129" value="" style="edgeStyle=orthogonalEdgeStyle;html=1;labelBackgroundColor=#FFFFFF;fontColor=#000000;strokeColor=#000000;" edge="1" parent="1" source="101" target="128">
                    <mxGeometry relative="1" as="geometry"/>
                </mxCell>
                <mxCell id="101" value="Buy or Cancel" style="rhombus;whiteSpace=wrap;html=1;fontColor=#000000;strokeColor=#000000;fillColor=#FFFFFF;" vertex="1" parent="1">
                    <mxGeometry x="810" y="451.25" width="60" height="62.5" as="geometry"/>
                </mxCell>
                <mxCell id="107" value="" style="edgeStyle=orthogonalEdgeStyle;html=1;labelBackgroundColor=#FFFFFF;fontColor=#000000;strokeColor=#000000;" edge="1" parent="1" source="104" target="106">
                    <mxGeometry relative="1" as="geometry"/>
                </mxCell>
                <mxCell id="104" value="User enters credit card details" style="rounded=1;whiteSpace=wrap;html=1;fillColor=#FFFFFF;strokeColor=#000000;fontColor=#000000;" vertex="1" parent="1">
                    <mxGeometry x="1180" y="1333.5" width="120" height="60" as="geometry"/>
                </mxCell>
                <mxCell id="111" value="" style="edgeStyle=orthogonalEdgeStyle;html=1;labelBackgroundColor=#FFFFFF;fontColor=#000000;strokeColor=#000000;" edge="1" parent="1" source="106" target="110">
                    <mxGeometry relative="1" as="geometry"/>
                </mxCell>
                <mxCell id="106" value="" style="rhombus;whiteSpace=wrap;html=1;fontColor=#000000;strokeColor=#000000;fillColor=#FFFFFF;direction=south;" vertex="1" parent="1">
                    <mxGeometry x="1208.75" y="1477.5" width="62.5" height="60" as="geometry"/>
                </mxCell>
                <mxCell id="113" value="" style="edgeStyle=orthogonalEdgeStyle;html=1;labelBackgroundColor=#FFFFFF;fontColor=#000000;strokeColor=#000000;" edge="1" parent="1" source="110" target="112">
                    <mxGeometry relative="1" as="geometry"/>
                </mxCell>
                <mxCell id="110" value="Confirm Payment with Financial Institution" style="rounded=1;whiteSpace=wrap;html=1;fillColor=#FFFFFF;strokeColor=#000000;fontColor=#000000;" vertex="1" parent="1">
                    <mxGeometry x="1180" y="1617.5" width="120" height="60" as="geometry"/>
                </mxCell>
                <mxCell id="115" value="No" style="edgeStyle=orthogonalEdgeStyle;html=1;labelBackgroundColor=#FFFFFF;fontColor=#000000;strokeColor=#000000;entryX=1;entryY=0.5;entryDx=0;entryDy=0;" edge="1" parent="1" source="112" target="104">
                    <mxGeometry relative="1" as="geometry">
                        <mxPoint x="1319.75" y="1761.3333333333335" as="targetPoint"/>
                        <Array as="points">
                            <mxPoint x="1380" y="1761"/>
                            <mxPoint x="1380" y="1364"/>
                        </Array>
                    </mxGeometry>
                </mxCell>
                <mxCell id="119" value="Yes" style="edgeStyle=orthogonalEdgeStyle;html=1;labelBackgroundColor=#FFFFFF;fontColor=#000000;strokeColor=#000000;" edge="1" parent="1" source="112" target="118">
                    <mxGeometry relative="1" as="geometry"/>
                </mxCell>
                <mxCell id="112" value="Verified?" style="rhombus;whiteSpace=wrap;html=1;fontColor=#000000;strokeColor=#000000;fillColor=#FFFFFF;" vertex="1" parent="1">
                    <mxGeometry x="1209.75" y="1730" width="60" height="62.5" as="geometry"/>
                </mxCell>
                <mxCell id="125" value="" style="edgeStyle=orthogonalEdgeStyle;html=1;labelBackgroundColor=#FFFFFF;fontColor=#000000;strokeColor=#000000;" edge="1" parent="1" source="118">
                    <mxGeometry relative="1" as="geometry">
                        <mxPoint x="1240" y="2000" as="targetPoint"/>
                    </mxGeometry>
                </mxCell>
                <mxCell id="118" value="App sends email verification and receipt to user.&amp;nbsp;" style="rounded=1;whiteSpace=wrap;html=1;fillColor=#FFFFFF;strokeColor=#000000;fontColor=#000000;" vertex="1" parent="1">
                    <mxGeometry x="1179.75" y="1873.75" width="120" height="60" as="geometry"/>
                </mxCell>
                <mxCell id="120" value="" style="shape=waypoint;sketch=0;fillStyle=solid;size=6;pointerEvents=1;points=[];fillColor=none;resizable=0;rotatable=0;perimeter=centerPerimeter;snapToPoint=1;fontColor=#000000;strokeColor=#000000;" vertex="1" parent="1">
                    <mxGeometry x="1030" y="670" width="40" height="40" as="geometry"/>
                </mxCell>
                <mxCell id="126" value="" style="ellipse;whiteSpace=wrap;html=1;aspect=fixed;fontColor=#000000;strokeColor=#000000;fillColor=#FFFFFF;" vertex="1" parent="1">
                    <mxGeometry x="1226.5" y="2000" width="27" height="27" as="geometry"/>
                </mxCell>
                <mxCell id="124" value="" style="ellipse;whiteSpace=wrap;html=1;aspect=fixed;fontColor=#000000;strokeColor=#000000;fillColor=#000000;gradientColor=none;" vertex="1" parent="1">
                    <mxGeometry x="1230" y="2003.5" width="20" height="20" as="geometry"/>
                </mxCell>
                <mxCell id="131" value="" style="edgeStyle=orthogonalEdgeStyle;html=1;labelBackgroundColor=#FFFFFF;fontColor=#000000;strokeColor=#000000;entryX=0.5;entryY=0;entryDx=0;entryDy=0;" edge="1" parent="1" source="128" target="132">
                    <mxGeometry relative="1" as="geometry">
                        <mxPoint x="840" y="735" as="targetPoint"/>
                    </mxGeometry>
                </mxCell>
                <mxCell id="128" value="Display Tickets" style="rounded=1;whiteSpace=wrap;html=1;fillColor=#FFFFFF;strokeColor=#000000;fontColor=#000000;" vertex="1" parent="1">
                    <mxGeometry x="780" y="595" width="120" height="60" as="geometry"/>
                </mxCell>
                <mxCell id="136" value="" style="edgeStyle=orthogonalEdgeStyle;html=1;labelBackgroundColor=#FFFFFF;fontColor=#000000;strokeColor=#000000;" edge="1" parent="1" source="132" target="135">
                    <mxGeometry relative="1" as="geometry"/>
                </mxCell>
                <mxCell id="132" value="Choose Movie" style="rhombus;whiteSpace=wrap;html=1;fontColor=#000000;strokeColor=#000000;fillColor=#FFFFFF;" vertex="1" parent="1">
                    <mxGeometry x="810" y="727.5" width="60" height="62.5" as="geometry"/>
                </mxCell>
                <mxCell id="138" value="No" style="edgeStyle=orthogonalEdgeStyle;html=1;labelBackgroundColor=#FFFFFF;fontColor=#000000;strokeColor=#000000;" edge="1" parent="1" source="135" target="137">
                    <mxGeometry relative="1" as="geometry"/>
                </mxCell>
                <mxCell id="140" value="Yes" style="edgeStyle=orthogonalEdgeStyle;html=1;labelBackgroundColor=#FFFFFF;fontColor=#000000;strokeColor=#000000;" edge="1" parent="1" source="135" target="139">
                    <mxGeometry relative="1" as="geometry"/>
                </mxCell>
                <mxCell id="135" value="Move &amp;gt; 72 hrs away?" style="rhombus;whiteSpace=wrap;html=1;fontColor=#000000;strokeColor=#000000;fillColor=#FFFFFF;" vertex="1" parent="1">
                    <mxGeometry x="800" y="850" width="80" height="82.5" as="geometry"/>
                </mxCell>
                <mxCell id="150" value="" style="edgeStyle=orthogonalEdgeStyle;html=1;labelBackgroundColor=#FFFFFF;fontColor=#000000;strokeColor=#000000;" edge="1" parent="1" source="137">
                    <mxGeometry relative="1" as="geometry">
                        <mxPoint x="840" y="2010" as="targetPoint"/>
                        <Array as="points">
                            <mxPoint x="520" y="891"/>
                            <mxPoint x="520" y="2010"/>
                            <mxPoint x="840" y="2010"/>
                        </Array>
                    </mxGeometry>
                </mxCell>
                <mxCell id="137" value="Cancel Ticket without refund" style="rounded=1;whiteSpace=wrap;html=1;fillColor=#FFFFFF;strokeColor=#000000;fontColor=#000000;" vertex="1" parent="1">
                    <mxGeometry x="628" y="861.25" width="120" height="60" as="geometry"/>
                </mxCell>
                <mxCell id="142" value="No" style="edgeStyle=orthogonalEdgeStyle;html=1;labelBackgroundColor=#FFFFFF;fontColor=#000000;strokeColor=#000000;" edge="1" parent="1" source="139" target="141">
                    <mxGeometry relative="1" as="geometry"/>
                </mxCell>
                <mxCell id="144" value="Yes" style="edgeStyle=orthogonalEdgeStyle;html=1;labelBackgroundColor=#FFFFFF;fontColor=#000000;strokeColor=#000000;" edge="1" parent="1" source="139" target="143">
                    <mxGeometry relative="1" as="geometry"/>
                </mxCell>
                <mxCell id="139" value="Registered User?" style="rhombus;whiteSpace=wrap;html=1;fontColor=#000000;strokeColor=#000000;fillColor=#FFFFFF;" vertex="1" parent="1">
                    <mxGeometry x="800" y="1012.5" width="80" height="82.5" as="geometry"/>
                </mxCell>
                <mxCell id="148" value="" style="edgeStyle=orthogonalEdgeStyle;html=1;labelBackgroundColor=#FFFFFF;fontColor=#000000;strokeColor=#000000;" edge="1" parent="1" source="141">
                    <mxGeometry relative="1" as="geometry">
                        <mxPoint x="680" y="2010" as="targetPoint"/>
                        <Array as="points">
                            <mxPoint x="680" y="1510"/>
                        </Array>
                    </mxGeometry>
                </mxCell>
                <mxCell id="141" value="Credit User minus 15% admin fee" style="rounded=1;whiteSpace=wrap;html=1;fillColor=#FFFFFF;strokeColor=#000000;fontColor=#000000;" vertex="1" parent="1">
                    <mxGeometry x="620" y="1023.75" width="120" height="60" as="geometry"/>
                </mxCell>
                <mxCell id="146" value="" style="edgeStyle=orthogonalEdgeStyle;html=1;labelBackgroundColor=#FFFFFF;fontColor=#000000;strokeColor=#000000;entryX=0;entryY=0.5;entryDx=0;entryDy=0;" edge="1" parent="1" source="143" target="124">
                    <mxGeometry relative="1" as="geometry">
                        <mxPoint x="840" y="1326.25" as="targetPoint"/>
                        <Array as="points">
                            <mxPoint x="840" y="2014"/>
                        </Array>
                    </mxGeometry>
                </mxCell>
                <mxCell id="143" value="Credit User full price of ticket.&amp;nbsp;" style="rounded=1;whiteSpace=wrap;html=1;fillColor=#FFFFFF;strokeColor=#000000;fontColor=#000000;" vertex="1" parent="1">
                    <mxGeometry x="780" y="1186.25" width="120" height="60" as="geometry"/>
                </mxCell>
            </root>
        </mxGraphModel>
    </diagram>
</mxfile>